{"title":"Thor.Tales.of.Asgard.2011.720p.BRRip.XviD.AC3-PsychoLogic","uid":6551114,"size":2019552051,"categoryP":"video","categoryS":"hd___movies","magnet":"?xt=urn:btih:459bc87a84fd8acc933db120d8cce0014261f7ee&amp;dn=Thor.Tales.of.Asgard.2011.720p.BRRip.XviD.AC3-PsychoLogic&amp;tr=udp%3A%2F%2Ftracker.openbittorrent.com%3A80&amp;tr=udp%3A%2F%2Fopen.demonii.com%3A1337&amp;tr=udp%3A%2F%2Ftracker.coppersurfer.tk%3A6969&amp;tr=udp%3A%2F%2Fexodus.desync.com%3A6969","seeders":0,"leechers":1,"uploader":"PsychoLogic","files":12,"time":1311070785,"description":"Release Information:\n\nThor.Tales.of.Asgard.2011.720p.BRRip.XviD.AC3-PsychoLogic\n\nSource                           : Thor.Tales.of.Asgard.2011.BluRay.1080p.DTS.x264-CHD\nSubtitles                        : Arabic, Bulgarian, Danish, English, Farsi, Hebrew, Spanish, Vietnamese\nLanguage                         : English\nEncoded By                       : PsychoLogic\nSample Included                  : Yes\n\nMovie Information                : http://www.imdb.com/title/tt1667903/\nGenre                            : Animation | Action | Adventure\nDirector                         : Sam Liu\nCast                             : Matthew Wolf, Rick Gomez and Tara Strong\nPlot                             : The young Norse god Thor embarks on a quest with his brother Loki to find and recover a legendary sword. \n\nGeneral\nFormat                           : AVI\nFormat/Info                      : Audio Video Interleave\nFile size                        : 1.86 GiB\nDuration                         : 1h 16mn\nOverall bit rate                 : 3 457 Kbps\nWriting application              : VirtualDubMod 1.5.10.2 (build 2542/release)\nWriting library                  : VirtualDubMod build 2542/release\n\nVideo\nID                               : 0\nFormat                           : MPEG-4 Visual\nFormat profile                   : Advanced Simple@L5\nFormat settings, BVOP            : 2\nFormat settings, QPel            : No\nFormat settings, GMC             : No warppoints\nFormat settings, Matrix          : Default (H.263)\nCodec ID                         : XVID\nCodec ID/Hint                    : XviD\nDuration                         : 1h 16mn\nBit rate                         : 2 999 Kbps\nWidth                            : 1 280 pixels\nHeight                           : 720 pixels\nDisplay aspect ratio             : 16:9\nFrame rate                       : 23.976 fps\nColor space                      : YUV\nChroma subsampling               : 4:2:0\nBit depth                        : 8 bits\nScan type                        : Progressive\nCompression mode                 : Lossy\nBits/(Pixel*Frame)               : 0.136\nStream size                      : 1.61 GiB (87%)\nWriting library                  : XviD 1.2.1 (UTC 2008-12-04)\n\nAudio\nID                               : 1\nFormat                           : AC-3\nFormat/Info                      : Audio Coding 3\nMode extension                   : CM (complete main)\nCodec ID                         : 2000\nDuration                         : 1h 16mn\nBit rate mode                    : Constant\nBit rate                         : 448 Kbps\nChannel(s)                       : 6 channels\nChannel positions                : Front: L C R, Side: L R, LFE\nSampling rate                    : 48.0 KHz\nBit depth                        : 16 bits\nCompression mode                 : Lossy\nStream size                      : 247 MiB (13%)\nAlignment                        : Split accross interleaves\nInterleave, duration             : 42 ms (1.00 video frame)\nInterleave, preload duration     : 500 ms\n\n","torrent":{"xt":"urn:btih:459bc87a84fd8acc933db120d8cce0014261f7ee","amp;dn":"Thor.Tales.of.Asgard.2011.720p.BRRip.XviD.AC3-PsychoLogic","amp;tr":["udp%3A%2F%2Ftracker.openbittorrent.com%3A80","udp%3A%2F%2Fopen.demonii.com%3A1337","udp%3A%2F%2Ftracker.coppersurfer.tk%3A6969","udp%3A%2F%2Fexodus.desync.com%3A6969"],"infoHash":"459bc87a84fd8acc933db120d8cce0014261f7ee","infoHashBuffer":{"type":"Buffer","data":[69,155,200,122,132,253,138,204,147,61,177,32,216,204,224,1,66,97,247,238]},"announce":[],"urlList":[]}}